<svg xmlns="http://www.w3.org/2000/svg" viewBox="0 0 64 64" width="64" height="64">
  <defs>
    <linearGradient id="g" x1="0" y1="0" x2="1" y2="1">
      <stop offset="0%" stop-color="#059669"/>
      <stop offset="100%" stop-color="#34d399"/>
    </linearGradient>
  </defs>
  <rect rx="14" ry="14" x="4" y="4" width="56" height="56" fill="url(#g)"/>
  <g fill="#ffffff">
    <path d="M20 22h16a2 2 0 0 1 0 4H24v6h8a2 2 0 0 1 0 4h-8v6h12a2 2 0 1 1 0 4H20a2 2 0 0 1-2-2V24a2 2 0 0 1 2-2z"/>
    <circle cx="44" cy="24" r="2.5" opacity="0.9"/>
  </g>
</svg>
